Coordinates
version=1
nRows=16
nColumns=36
inDegrees=yes

Units are S.I. units (second, meters, Newtons, ...)
If the header above contains a line with 'inDegrees', this indicates whether rotational values are in degrees (yes) or radians (no).

endheader
time	pelvis_tilt	pelvis_list	pelvis_rotation	pelvis_tx	pelvis_ty	pelvis_tz	hip_flexion_r	hip_adduction_r	hip_rotation_r	knee_angle_r	knee_angle_r_beta	ankle_angle_r	subtalar_angle_r	mtp_angle_r	hip_flexion_l	hip_adduction_l	hip_rotation_l	knee_angle_l	knee_angle_l_beta	ankle_angle_l	subtalar_angle_l	mtp_angle_l	lumbar_extension	lumbar_bending	lumbar_rotation	arm_flex_r	arm_add_r	arm_rot_r	elbow_flex_r	pro_sup_r	arm_flex_l	arm_add_l	arm_rot_l	elbow_flex_l	pro_sup_l
      1.53000000	    -28.20084945	     -3.76772250	      4.62480711	     -0.33351382	      0.76677576	     -0.60281533	     84.81182636	     -7.74031685	     -5.70108970	     82.59401929	      1.44153758	     25.39670493	    -10.33527831	     -7.30008908	     86.09619948	     -9.61115872	     -4.42431080	     83.34446999	      1.45463541	     25.60709991	      3.69581254	     -7.30008908	    -34.15519118	      2.49338941	      1.15963806	    -31.30910465	     -7.82894177	      6.70401902	     41.50419001	    113.82851156	    -21.12848158	     -9.16777156	    -12.36255485	     53.62372517	    112.37502361
      1.54000000	    -27.95254807	     -3.59185461	      4.82704474	     -0.32919419	      0.75605128	     -0.60303970	     85.53062328	     -7.91713259	     -5.28958222	     84.91314819	      1.48201401	     27.42658495	     -9.93552806	     -7.30644157	     86.78470210	     -9.59441725	     -4.30501996	     85.49945497	      1.49224700	     27.16740367	      4.44271737	     -7.30644157	    -35.84444747	      2.45075833	      1.23974382	    -25.91843253	     -8.37528793	      8.85074543	     39.32990820	    113.11371782	    -15.08252623	     -9.67646625	    -10.65969883	     49.39006772	    111.25775388
      1.55000000	    -27.86404723	     -3.74681303	      5.22676740	     -0.32582086	      0.74555206	     -0.60437820	     86.31651708	     -8.21579498	     -5.07028735	     87.01482508	      1.51869520	     28.97696571	     -9.89645606	     -7.31187954	     87.85697813	     -9.17744932	     -3.69095795	     87.56892865	      1.52836613	     28.13862118	      4.53656458	     -7.31187954	    -37.18995735	      2.86898350	      1.18082818	    -20.67957497	     -9.13703322	     10.11447193	     37.96502388	    112.62206521	     -9.12517361	     -9.82660400	     -9.57891120	     45.40616429	    110.27718292
      1.56000000	    -28.06738887	     -4.13587144	      5.75066574	     -0.32324165	      0.73511619	     -0.60631533	     87.42159363	     -8.63816359	     -5.00254825	     89.01369802	      1.55358211	     30.16526343	     -9.91010904	     -7.31983528	     89.34912861	     -8.46232862	     -2.83310252	     89.52026097	      1.56242330	     28.81387804	      4.34688508	     -7.31983528	    -37.97889224	      3.63188124	      1.04752171	    -15.49091664	    -10.15459037	     11.18780355	     37.10441149	    112.10928140	     -3.34271983	    -10.10888149	     -7.78459044	     41.72164728	    109.06592813
      1.57000000	    -28.36979885	     -4.33047569	      6.02822422	     -0.32068480	      0.72579188	     -0.60747062	     88.63526568	     -8.81579036	     -4.75125312	     90.81285769	      1.58498337	     30.75230682	    -10.17538505	     -7.32932414	     90.68661783	     -7.98697646	     -2.28606388	     91.22973186	      1.59225920	     29.32572036	      4.06629469	     -7.32932414	    -38.51295120	      4.09988277	      0.87905901	    -10.17623609	    -11.01484810	     11.54494909	     36.46102199	    111.68790918	      2.28679160	    -10.34878184	     -6.47932788	     38.59988678	    107.67131832
      1.58000000	    -28.45193412	     -4.31133788	      5.93901796	     -0.31745169	      0.71847874	     -0.60734609	     89.47228405	     -8.55408085	     -4.41265130	     92.31603561	      1.61121877	     31.03473182	    -10.68062639	     -7.33769559	     91.45832916	     -8.05468533	     -2.04754549	     92.71453305	      1.61817387	     29.88458670	      4.06766778	     -7.33769559	    -39.21699310	      4.15538322	      0.80999901	     -4.67032904	    -11.66362090	     11.18941375	     35.90110235	    111.42251190	      7.70535598	    -10.64165727	     -5.76426787	     36.35053998	    106.57575023
      1.59000000	    -28.05448137	     -4.20979199	      5.80377153	     -0.31351853	      0.71368651	     -0.60699080	     89.56306822	     -8.21544161	     -4.15966980	     93.55358956	      1.63281816	     31.34632289	    -11.12484866	     -7.33990279	     91.46656905	     -8.23716986	     -1.88679606	     93.95894907	      1.63989302	     30.29924559	      3.90970770	     -7.33990279	    -40.42234480	      4.09466410	      0.66995069	      0.97199841	    -12.19379909	     10.22749989	     35.75778395	    111.11518049	     12.68996289	    -10.97923006	     -5.92448217	     35.77856354	    106.19139392
      1.60000000	    -27.48622129	     -4.09834492	      6.01232431	     -0.30955588	      0.71015808	     -0.60760324	     89.38204042	     -8.33609717	     -3.97066706	     94.78607972	      1.65432918	     31.52683967	    -11.41966065	     -7.34093486	     91.21774129	     -7.98603701	     -1.71771347	     95.02976299	      1.65858225	     30.56367288	      3.83545837	     -7.34093486	    -41.53244731	      4.25731113	      0.44442569	      6.36308421	    -12.88113682	      9.23536209	     36.15674805	    111.08423800	     17.51556842	    -11.31593516	     -5.74352968	     36.10055589	    106.13889319
      1.61000000	    -26.88194458	     -3.88120239	      6.11043040	     -0.30570585	      0.70778443	     -0.60778363	     89.06839649	     -8.28846177	     -3.68640450	     95.78292179	      1.67172735	     31.67316922	    -11.64869534	     -7.34195404	     90.77012912	     -7.81597413	     -1.64227178	     95.88757447	      1.67355389	     30.78412868	      3.75308232	     -7.34195404	    -42.47427815	      4.19349399	      0.43534643	     11.56911332	    -13.54878953	      8.01527819	     36.86987772	    111.08924738	     22.34323040	    -11.61435247	     -5.31503494	     37.16371618	    106.16590783
      1.62000000	    -26.20920015	     -3.58922515	      5.71458959	     -0.30169063	      0.70612788	     -0.60632351	     88.66465276	     -7.60229273	     -3.32446935	     96.62937981	      1.68650083	     31.64489059	    -12.04364541	     -7.35345407	     90.16732799	     -8.30211805	     -1.67577612	     96.76460475	      1.68886095	     31.18792228	      3.83894499	     -7.35345407	    -43.26781478	      3.62871893	      1.62166720	     15.43038008	    -13.93288273	      3.10068991	     39.56365362	    112.23769911	     27.59049930	    -11.85112358	     -2.68328782	     38.52743301	    105.26612831
      1.63000000	    -25.43401835	     -3.47258826	      5.20362479	     -0.29782793	      0.70598894	     -0.60469622	     87.97187296	     -6.76634945	     -3.17292087	     97.18737926	      1.69623976	     31.52032454	    -12.30971133	     -7.35538388	     89.36243044	     -8.78753398	     -1.47003960	     97.45458564	      1.70090339	     31.36876429	      3.54703491	     -7.35538388	    -43.95596237	      3.13101499	      2.08873613	     20.30169350	    -14.58691850	      1.77181030	     41.83049404	    112.45068057	     31.67044052	    -12.35209856	     -1.97073046	     42.21862952	    105.47109609
      1.64000000	    -24.79463255	     -3.48204292	      4.94446128	     -0.29465823	      0.70715567	     -0.60409117	     87.26235942	     -6.29785162	     -3.15233436	     97.46325026	      1.70105462	     31.21337003	    -12.60098226	     -7.35804121	     88.59369728	     -8.73128483	     -1.04047128	     97.80200907	      1.70696707	     31.35383088	      3.05046864	     -7.35804121	    -44.37913807	      2.96153504	      2.48112425	     24.85398912	    -15.19417999	     -0.19519636	     45.58004102	    112.84293739	     35.66418215	    -12.82472881	     -0.95028596	     46.87549398	    105.76308897
      1.65000000	    -24.21052501	     -3.58052022	      4.78319971	     -0.29200801	      0.70899742	     -0.60413609	     86.54237851	     -6.06934184	     -3.28770132	     97.59017442	      1.70326986	     30.74898762	    -12.60817311	     -7.35992042	     88.00036924	     -8.42504513	     -0.37678637	     98.14520443	      1.71295696	     30.86998242	      2.54932232	     -7.35992042	    -44.41792958	      2.91007200	      2.81754474	     29.31377700	    -15.94993961	     -1.23520307	     49.76088916	    113.27677110	     39.86931306	    -13.16630064	      0.37291459	     51.40019411	    106.14576612
      1.66000000	    -24.14872536	     -3.55233306	      4.51071036	     -0.28976383	      0.71002116	     -0.60410098	     86.45365259	     -5.84666981	     -3.26417219	     97.67008186	      1.70466451	     30.20525677	    -12.83895214	     -7.36436316	     88.06641028	     -8.25062861	      0.03426465	     98.54999062	      1.72002181	     29.90634780	      1.66271362	     -7.36436316	    -43.58108831	      2.68526266	      3.11938795	     33.11624562	    -16.66994018	     -2.32171943	     55.09792685	    114.05636314	     44.11671629	    -13.58872788	      2.26853113	     55.81963874	    106.35766576
      1.67000000	    -24.15926144	     -3.46750451	      4.00057551	     -0.28750991	      0.71128562	     -0.60362633	     86.43502436	     -5.40529314	     -3.18654926	     97.66314032	      1.70454336	     29.73034134	    -12.69747199	     -7.36559770	     88.08975834	     -8.47819186	      0.24236941	     98.90679504	      1.72624923	     29.32257224	      1.49227999	     -7.36559770	    -42.35551923	      2.30542408	      3.17533087	     37.21080781	    -17.47391758	     -1.33957728	     60.19659219	    114.51033527	     48.23338110	    -14.32961002	      4.18042010	     60.17219113	    106.89541891
      1.68000000	    -24.25016216	     -3.33362935	      3.60541284	     -0.28532096	      0.71307239	     -0.60328325	     86.45077791	     -5.08395955	     -3.05944869	     97.61328829	      1.70367327	     29.25886094	    -12.78209752	     -7.36746101	     87.97090345	     -8.53872088	      0.34152737	     98.97702241	      1.72747492	     28.94298576	      1.04261766	     -7.36746101	    -40.84087000	      1.93189882	      3.17967121	     41.23705088	    -18.29037440	      0.01587766	     65.49928666	    114.51881512	     52.57624629	    -14.95413076	      6.46647371	     64.44726377	    107.34827817
